<?xml version="1.0"?><svg width="36" height="36" xmlns="http://www.w3.org/2000/svg" xmlns:xlink="http://www.w3.org/1999/xlink">
 <g>
  <title>Layer 1</title>
  <g id="layer1">
   <g id="g1478">
    <path fill="#007fff" stroke-width="2" stroke-linecap="round" stroke-linejoin="round" stroke-miterlimit="4" d="m2.025101,7.21133c-0.376011,0.45376 -0.34185,1.1199 0.0786,1.53282l9.255859,9.25585l-9.255859,9.255852c-0.214991,0.21299 -0.335951,0.503078 -0.335951,0.805717c0,0.302631 0.12096,0.59272 0.335951,0.80571l5.03079,5.030781c0.21299,0.215 0.503069,0.335949 0.80571,0.335949c0.302629,0 0.59272,-0.120949 0.80571,-0.335949l9.255848,-9.255859l9.255852,9.255859c0.21299,0.215 0.503078,0.335949 0.80571,0.335949c0.302639,0 0.59272,-0.120949 0.80571,-0.335949l5.030788,-5.030781c0.214993,-0.21299 0.335953,-0.503078 0.335953,-0.80571c0,-0.302639 -0.12096,-0.592728 -0.335953,-0.805717l-9.255848,-9.255852l9.255848,-9.25585c0.214993,-0.21299 0.335953,-0.50308 0.335953,-0.80571c0,-0.302641 -0.12096,-0.59273 -0.335953,-0.805719l-5.030788,-5.030781c-0.21299,-0.215 -0.503071,-0.335951 -0.80571,-0.335951c-0.302631,0 -0.59272,0.120951 -0.80571,0.335951l-9.255852,9.255859l-9.255848,-9.255859c-0.21299,-0.215 -0.50308,-0.335951 -0.80571,-0.335951c-0.302641,0 -0.59272,0.120951 -0.80571,0.335951l-5.03079,5.030781c-0.027472,0.02491 -0.053701,0.05114 -0.0786,0.078609z" id="path1349"/>
    <path fill="#007fff" stroke-width="2" stroke-linecap="round" stroke-linejoin="round" stroke-miterlimit="4" d="m7.71875,2.947048c-0.179831,0.047228 -0.342451,0.144798 -0.46875,0.281248l-4.03125,4.03125c-0.377159,0.380741 -0.377159,0.994261 0,1.375002l9.375,9.375l-9.375,9.374996c-0.377159,0.380741 -0.377159,0.994263 0,1.375l4.03125,4.031254c0.380741,0.377159 0.994259,0.377159 1.375,0l9.375,-9.375004l9.375,9.375004c0.380741,0.377159 0.994261,0.377159 1.375,0l4.03125,-4.031254c0.377159,-0.380737 0.377159,-0.994259 0,-1.375l-9.375,-9.374996l9.375,-9.375c0.377159,-0.380741 0.377159,-0.994261 0,-1.375002l-4.03125,-4.03125c-0.380739,-0.377159 -0.994259,-0.377159 -1.375,0l-9.375,9.375002l-9.375,-9.375002c-0.23321,-0.24402 -0.575859,-0.350359 -0.90625,-0.281248z" id="path1468"/>
    <path fill="#007fff" stroke-width="2" stroke-linecap="round" stroke-linejoin="round" stroke-miterlimit="4" d="m7.84375,3.65625c-0.03546,0.0137 -0.067459,0.03504 -0.09375,0.0625l-4.03125,4.03125c-0.031891,0.03516 -0.053511,0.0784 -0.0625,0.125c-0.016081,0.05084 -0.016081,0.10541 0,0.15625c0.0137,0.03546 0.03504,0.067459 0.0625,0.09375l9.5625,9.5625c0.087799,0.083748 0.15625,0.198402 0.15625,0.3125c0,0.114101 -0.068439,0.228748 -0.15625,0.3125l-9.5625,9.5625c-0.031891,0.03516 -0.053511,0.0784 -0.0625,0.125c-0.016081,0.050838 -0.016081,0.105412 0,0.15625c0.0137,0.035461 0.03504,0.067459 0.0625,0.09375l4.03125,4.03125c0.03516,0.031891 0.0784,0.053509 0.125,0.0625c0.05084,0.016079 0.10541,0.016079 0.15625,0c0.03546,-0.01371 0.067459,-0.035042 0.09375,-0.0625l9.5625,-9.5625c0.08375,-0.087811 0.1984,-0.15625 0.3125,-0.15625c0.114101,0 0.228741,0.068439 0.3125,0.15625l9.5625,9.5625c0.03516,0.031891 0.0784,0.053509 0.125,0.0625c0.050838,0.016079 0.105412,0.016079 0.15625,0c0.035461,-0.01371 0.067459,-0.035042 0.09375,-0.0625l4.03125,-4.03125c0.031891,-0.03516 0.053509,-0.0784 0.0625,-0.125c0.016079,-0.050838 0.016079,-0.105412 0,-0.15625c-0.01371,-0.035461 -0.035042,-0.067459 -0.0625,-0.09375l-9.5625,-9.5625c-0.087811,-0.083752 -0.15625,-0.198399 -0.15625,-0.3125c0,-0.114098 0.068439,-0.228752 0.15625,-0.3125l9.5625,-9.5625c0.031891,-0.03516 0.053509,-0.0784 0.0625,-0.125c0.016079,-0.05084 0.016079,-0.10541 0,-0.15625c-0.01371,-0.03546 -0.035042,-0.067459 -0.0625,-0.09375l-4.03125,-4.03125c-0.03516,-0.031891 -0.0784,-0.053511 -0.125,-0.0625c-0.050838,-0.016081 -0.105412,-0.016081 -0.15625,0c-0.035461,0.0137 -0.067459,0.03504 -0.09375,0.0625l-9.5625,9.5625c-0.083752,0.087799 -0.198399,0.15625 -0.3125,0.15625c-0.1141,0 -0.22875,-0.068439 -0.3125,-0.15625l-9.5625,-9.5625c-0.03516,-0.031891 -0.0784,-0.053511 -0.125,-0.0625c-0.05084,-0.016081 -0.10541,-0.016081 -0.15625,0z" id="path1472"/>
   </g>
  </g>
 </g>
</svg>